<?xml version="1.0" encoding="utf-8"?>
<!-- Generator: Adobe Illustrator 23.0.5, SVG Export Plug-In . SVG Version: 6.00 Build 0)  -->
<svg version="1.1" id="Layer_1" xmlns="http://www.w3.org/2000/svg" xmlns:xlink="http://www.w3.org/1999/xlink" x="0px" y="0px"
	 viewBox="0 0 2567.16 460.5" style="enable-background:new 0 0 2567.16 460.5;" xml:space="preserve">
<style type="text/css">
	.st0{fill:#FFFFFF;}
</style>
<g>
	<polygon className="st0" points="493.8,0 254.5,138.2 271.5,26.5 	"/>
	<polygon className="st0" points="493.8,0 359.7,179.3 254.5,138.2 	"/>
	<polygon className="st0" points="246.9,184.2 246.9,460.5 335.1,254.7 	"/>
	<polygon className="st0" points="158.7,254.7 246.9,184.2 246.9,460.5 	"/>
	<polygon className="st0" points="239.3,138.2 0,0 134.1,179.3 	"/>
	<polygon className="st0" points="222.3,26.5 239.3,138.2 0,0 	"/>
	<polygon className="st0" points="239.3,138.2 0,0 134.1,179.3 	"/>
	<polygon className="st0" points="222.3,26.5 239.3,138.2 0,0 	"/>
</g>
<g>
	<path className="st0" d="M627.84,107.98h49.63v252.4h-49.63V107.98z M968.61,370.67L777.35,197.77l14.73,8.27l1.01,154.35h-50.44V98.1
		h2.02l187.23,172.1l-10.9-4.84l-1.01-157.37h50.04v262.69L968.61,370.67L968.61,370.67z M1035.19,360.39v-252.4h75.46
		c25.42,0,47.01,3.83,64.77,11.3c17.75,7.47,32.08,17.55,42.97,30.26c10.9,12.51,18.76,26.63,23.81,42.17
		c5.04,15.54,7.47,31.27,7.47,47.01c0,18.76-3.43,35.51-10.09,50.64c-6.66,14.93-15.94,27.84-27.64,38.33
		c-11.7,10.69-25.22,18.76-40.55,24.41c-15.33,5.65-31.47,8.47-48.62,8.47h-87.56V360.39z M1084.83,312.37h29.46
		c12.51,0,24.01-1.61,34.3-5.04c10.29-3.23,19.17-8.07,26.63-14.53c7.47-6.46,13.11-14.53,17.15-24.21
		c4.04-9.68,6.05-20.78,6.05-33.49c0-16.54-2.62-29.86-8.07-40.35c-5.45-10.49-11.9-18.36-19.97-24.21
		c-7.87-5.65-15.94-9.68-24.21-11.9c-8.27-2.22-15.13-3.23-20.98-3.23h-40.55v156.97H1084.83z M1299.5,107.98h49.63v252.4h-49.63
		V107.98z M1603.75,339.4c-2.82,2.22-7.87,5.45-15.33,9.28c-7.47,3.83-16.54,7.26-27.24,10.29c-10.69,3.03-22.6,4.44-35.71,4.04
		c-19.97-0.4-37.73-4.04-53.26-10.9c-15.74-6.66-28.85-15.94-39.75-27.64s-19.17-25.02-24.82-40.15
		c-5.65-15.13-8.47-31.27-8.47-48.42c0-19.17,2.82-36.72,8.68-52.86c5.85-15.94,14.12-29.86,25.02-41.56
		c10.9-11.7,23.81-20.78,38.94-27.04c15.13-6.46,31.68-9.68,50.04-9.68c16.95,0,31.88,2.22,44.99,6.86
		c13.11,4.64,23.61,9.48,31.88,14.73l-19.57,47.01c-5.65-4.44-13.32-8.88-22.8-13.52s-20.38-7.06-32.69-7.06
		c-9.68,0-18.76,2.02-27.64,6.05c-8.88,4.04-16.54,9.68-23.4,16.95c-6.66,7.26-12.11,15.74-15.94,25.62
		c-3.83,9.68-5.85,20.38-5.85,31.68c0,12.11,1.82,23.2,5.25,33.29c3.63,10.09,8.68,18.76,15.33,25.83
		c6.66,7.26,14.53,12.71,23.81,16.54s19.77,5.85,31.47,5.85c13.52,0,25.02-2.22,34.7-6.46c9.68-4.44,16.95-8.88,21.99-13.72
		L1603.75,339.4z M1693.94,367.65c-13.52,0-24.82-4.24-33.9-12.51c-9.08-8.27-13.92-19.17-14.32-32.48V210.48h48.02v94.22
		c0.4,6.66,2.22,11.9,5.04,15.94c3.03,4.04,8.07,6.05,15.13,6.05c7.06,0,13.11-2.42,18.36-7.26c5.04-4.84,9.08-11.3,11.9-19.77
		c2.82-8.27,4.24-17.75,4.24-28.25v-61.13h48.02v149.91h-43.58l-3.83-27.44l0.61,3.03c-3.43,6.25-7.87,11.7-13.11,16.54
		c-5.25,4.84-11.5,8.47-18.76,11.1C1710.89,366.24,1702.82,367.65,1693.94,367.65z M1845.87,89.82h48.02v270.56h-48.02V89.82z
		 M1957.24,144.7h48.02v65.17h36.32v37.33h-36.32v113.19h-48.02V247.2h-23.4v-37.33h23.4V144.7z M2126.51,367.65
		c-13.52,0-24.82-4.24-33.9-12.51c-9.08-8.27-13.92-19.17-14.32-32.48V210.48h48.02v94.22c0.4,6.66,2.22,11.9,5.04,15.94
		c3.03,4.04,8.07,6.05,15.13,6.05c7.06,0,13.11-2.42,18.36-7.26c5.04-4.84,9.08-11.3,11.9-19.77c2.82-8.27,4.24-17.75,4.24-28.25
		v-61.13h48.02v149.91h-43.58l-3.83-27.44l0.61,3.03c-3.43,6.25-7.87,11.7-13.11,16.54c-5.25,4.84-11.5,8.47-18.76,11.1
		C2143.66,366.24,2135.59,367.65,2126.51,367.65z M2321.82,210.48l4.44,41.16l-1.01-6.25c4.44-8.88,10.29-16.54,17.75-22.8
		s14.93-11.1,22.4-14.53c7.46-3.43,13.11-5.04,16.95-5.04l-2.42,48.02c-11.3-1.41-20.78,0.4-28.85,5.45
		c-8.07,5.04-14.12,11.7-18.56,19.97c-4.44,8.27-6.46,16.75-6.46,25.42v58.71h-47.62V210.68h43.38V210.48z M2486.05,364.42
		c-18.36,0-33.69-3.43-46.4-10.29c-12.71-6.86-22.4-16.34-29.05-28.45c-6.66-12.11-9.89-26.03-9.89-41.76
		c0-15.13,3.83-28.65,11.7-40.76c7.87-12.11,18.16-21.79,31.27-29.05c13.11-7.26,27.64-10.9,43.58-10.9
		c21.39,0,39.14,6.25,53.06,18.76c13.92,12.51,22.8,30.47,26.83,54.07l-116.62,37.12l-10.69-26.03l84.34-28.45l-9.89,4.44
		c-1.82-5.85-5.04-11.1-9.68-15.54c-4.64-4.44-11.7-6.66-21.18-6.66c-7.06,0-13.32,1.61-18.76,5.04
		c-5.45,3.23-9.48,8.07-12.31,14.12c-2.82,6.05-4.24,13.11-4.24,21.39c0,9.28,1.61,17.15,5.04,23.4c3.43,6.25,8.07,11.1,14.12,14.32
		c5.85,3.23,12.51,4.84,19.97,4.84c5.25,0,10.29-1.01,15.33-2.82c4.84-1.82,9.68-4.24,14.53-7.26l21.18,35.71
		c-8.07,4.64-16.54,8.27-25.83,10.9S2494.12,364.42,2486.05,364.42z"/>
</g>
</svg>
